<svg width="136" height="76" viewBox="0 0 136 76" fill="none" xmlns="http://www.w3.org/2000/svg">
<path d="M28.6299 20.5485V48.3188C28.6299 49.0752 29.2431 49.6884 29.9994 49.6884C30.7558 49.6884 31.369 49.0752 31.369 48.3188V20.5485C31.369 19.7921 30.7558 19.179 29.9994 19.179C29.2431 19.179 28.6299 19.7921 28.6299 20.5485Z" fill="white" stroke="white" stroke-linejoin="round"/>
<g filter="url(#filter0_d_225_19823)">
<path fill-rule="evenodd" clip-rule="evenodd" d="M29.7463 12.3431L29.7548 12.3381C29.9051 12.2528 30.0818 12.2352 30.243 12.2851L29.7463 12.3431ZM31.5163 10.3992C30.6202 9.86839 29.5087 9.86681 28.6111 10.3951L11.6698 20.3674C9.76485 21.4887 9.77924 24.2638 11.6964 25.3648L46.1474 45.1501L30.0596 54.681L12.2461 44.1953V33.9371C12.2461 33.0462 11.5279 32.3084 10.6231 32.3084C9.71816 32.3084 9 33.0462 9 33.9371V44.406C9 45.4281 9.53799 46.3778 10.4201 46.897L28.6111 57.6048C29.5087 58.1332 30.6202 58.1316 31.5163 57.6007L48.3431 47.632C50.2418 46.5071 50.2237 43.738 48.3096 42.6387L13.8604 22.8544L30.0596 13.319L48.5517 24.2743C49.3299 24.7353 50.3271 24.4688 50.7785 23.693C51.2268 22.9224 50.9748 21.9271 50.202 21.4693L31.5163 10.3992Z" fill="url(#paint0_linear_225_19823)"/>
<path fill-rule="evenodd" clip-rule="evenodd" d="M29.7463 12.3431L29.7548 12.3381C29.9051 12.2528 30.0818 12.2352 30.243 12.2851L29.7463 12.3431ZM31.5163 10.3992C30.6202 9.86839 29.5087 9.86681 28.6111 10.3951L11.6698 20.3674C9.76485 21.4887 9.77924 24.2638 11.6964 25.3648L46.1474 45.1501L30.0596 54.681L12.2461 44.1953V33.9371C12.2461 33.0462 11.5279 32.3084 10.6231 32.3084C9.71816 32.3084 9 33.0462 9 33.9371V44.406C9 45.4281 9.53799 46.3778 10.4201 46.897L28.6111 57.6048C29.5087 58.1332 30.6202 58.1316 31.5163 57.6007L48.3431 47.632C50.2418 46.5071 50.2237 43.738 48.3096 42.6387L13.8604 22.8544L30.0596 13.319L48.5517 24.2743C49.3299 24.7353 50.3271 24.4688 50.7785 23.693C51.2268 22.9224 50.9748 21.9271 50.202 21.4693L31.5163 10.3992Z" fill="url(#paint1_linear_225_19823)" fill-opacity="0.2"/>
<path fill-rule="evenodd" clip-rule="evenodd" d="M29.7463 12.3431L29.7548 12.3381C29.9051 12.2528 30.0818 12.2352 30.243 12.2851L29.7463 12.3431ZM31.5163 10.3992C30.6202 9.86839 29.5087 9.86681 28.6111 10.3951L11.6698 20.3674C9.76485 21.4887 9.77924 24.2638 11.6964 25.3648L46.1474 45.1501L30.0596 54.681L12.2461 44.1953V33.9371C12.2461 33.0462 11.5279 32.3084 10.6231 32.3084C9.71816 32.3084 9 33.0462 9 33.9371V44.406C9 45.4281 9.53799 46.3778 10.4201 46.897L28.6111 57.6048C29.5087 58.1332 30.6202 58.1316 31.5163 57.6007L48.3431 47.632C50.2418 46.5071 50.2237 43.738 48.3096 42.6387L13.8604 22.8544L30.0596 13.319L48.5517 24.2743C49.3299 24.7353 50.3271 24.4688 50.7785 23.693C51.2268 22.9224 50.9748 21.9271 50.202 21.4693L31.5163 10.3992Z" fill="url(#paint2_radial_225_19823)" fill-opacity="0.15"/>
</g>
<path d="M67.1433 21.7228C67.0633 21.6441 66.9147 21.5372 66.6975 21.4022C66.4918 21.2673 66.2347 21.1379 65.9261 21.0141C65.6289 20.8904 65.3032 20.7835 64.9489 20.6936C64.5946 20.5923 64.2346 20.5417 63.8688 20.5417C63.2288 20.5417 62.7431 20.6598 62.4116 20.896C62.0916 21.1323 61.9316 21.4641 61.9316 21.8916C61.9316 22.2178 62.0344 22.4765 62.2402 22.6678C62.4459 22.859 62.7545 23.0221 63.1659 23.1571C63.5774 23.2921 64.0917 23.4383 64.7089 23.5958C65.5089 23.787 66.2004 24.0233 66.7833 24.3045C67.3776 24.5745 67.829 24.9344 68.1376 25.3844C68.4576 25.8231 68.6177 26.408 68.6177 27.1392C68.6177 27.7804 68.4976 28.3316 68.2576 28.7928C68.0176 29.2428 67.6862 29.6084 67.2633 29.8896C66.8404 30.1708 66.3604 30.3789 65.8232 30.5139C65.286 30.6377 64.7146 30.6995 64.1088 30.6995C63.5031 30.6995 62.8973 30.6377 62.2916 30.5139C61.6859 30.3902 61.103 30.2158 60.5429 29.9908C59.9829 29.7546 59.4686 29.4734 59 29.1472L60.0458 27.1392C60.1486 27.2405 60.3315 27.3755 60.5944 27.5442C60.8572 27.7017 61.1773 27.8648 61.5544 28.0335C61.9316 28.191 62.343 28.326 62.7888 28.4385C63.2345 28.551 63.686 28.6072 64.1431 28.6072C64.7832 28.6072 65.2689 28.5004 65.6003 28.2866C65.9318 28.0729 66.0975 27.7692 66.0975 27.3755C66.0975 27.0155 65.9661 26.7343 65.7032 26.5318C65.4403 26.3293 65.0746 26.1549 64.606 26.0087C64.1374 25.8512 63.5831 25.6825 62.9431 25.5025C62.1773 25.2888 61.5373 25.0525 61.023 24.7938C60.5087 24.5238 60.1258 24.1864 59.8743 23.7814C59.6229 23.3764 59.4972 22.8702 59.4972 22.2628C59.4972 21.4416 59.6915 20.7554 60.0801 20.2042C60.4801 19.6418 61.0172 19.2199 61.6916 18.9387C62.3659 18.6462 63.1145 18.5 63.9374 18.5C64.5089 18.5 65.046 18.5619 65.5489 18.6856C66.0632 18.8093 66.5433 18.9725 66.989 19.1749C67.4347 19.3774 67.8348 19.5968 68.1891 19.833L67.1433 21.7228Z" fill="white"/>
<path d="M78.8573 28.5228V30.5645H70.4054V18.5844H78.703V20.6261H72.7713V23.5114H77.8972V25.4013H72.7713V28.5228H78.8573Z" fill="white"/>
<path d="M83.0676 22.8702V30.5645H80.7017V18.5844H82.5875L88.8793 26.4812V18.6012H91.2451V30.5645H89.2736L83.0676 22.8702Z" fill="white"/>
<path d="M102.881 20.6261H98.9889V30.5645H96.6402V20.6261H92.7486V18.5844H102.881V20.6261Z" fill="white"/>
<path d="M104.392 30.5645V18.5844H106.757V30.5645H104.392Z" fill="white"/>
<path d="M114.457 30.6489C113.486 30.6489 112.657 30.4914 111.971 30.1765C111.297 29.8502 110.748 29.4059 110.326 28.8434C109.914 28.281 109.611 27.6454 109.417 26.9367C109.223 26.2168 109.126 25.4687 109.126 24.6926V18.5844H111.491V24.6926C111.491 25.1875 111.537 25.6712 111.629 26.1437C111.731 26.6049 111.897 27.0211 112.126 27.3923C112.354 27.7635 112.657 28.056 113.034 28.2697C113.411 28.4835 113.88 28.5903 114.44 28.5903C115.012 28.5903 115.486 28.4835 115.863 28.2697C116.252 28.0448 116.555 27.7467 116.772 27.3755C117 27.0042 117.166 26.588 117.269 26.1268C117.372 25.6544 117.423 25.1763 117.423 24.6926V18.5844H119.772V24.6926C119.772 25.5137 119.669 26.2843 119.463 27.0042C119.269 27.7242 118.955 28.3597 118.52 28.9109C118.097 29.4509 117.549 29.8784 116.875 30.1933C116.2 30.497 115.394 30.6489 114.457 30.6489Z" fill="white"/>
<path d="M132.081 30.5645V22.7015L128.961 28.5566H127.641L124.521 22.7015V30.5645H122.155V18.5844H124.692L128.292 25.4013L131.927 18.5844H134.447V30.5645H132.081Z" fill="white"/>
<path d="M60.1486 49.3988V37.4186H61.3487V49.3988H60.1486Z" fill="white"/>
<path d="M65.6012 39.5953V49.3988H64.4011V37.4186H65.3954L73.3844 47.4077V37.4355H74.5845V49.3988H73.4701L65.6012 39.5953Z" fill="white"/>
<path d="M84.7586 39.6628C84.5872 39.4715 84.3872 39.3028 84.1586 39.1566C83.93 38.9991 83.6729 38.8641 83.3871 38.7516C83.1014 38.6391 82.7928 38.5491 82.4614 38.4816C82.1414 38.4141 81.7985 38.3804 81.4327 38.3804C80.3698 38.3804 79.5869 38.5829 79.0841 38.9878C78.5926 39.3815 78.3469 39.9215 78.3469 40.6077C78.3469 41.0801 78.4612 41.4513 78.6897 41.7213C78.9298 41.9913 79.3012 42.2107 79.8041 42.3794C80.307 42.5481 80.947 42.7225 81.7242 42.9025C82.5928 43.0825 83.3414 43.2962 83.97 43.5437C84.5986 43.7911 85.0844 44.1286 85.4272 44.5561C85.7701 44.9723 85.9416 45.5404 85.9416 46.2603C85.9416 46.8115 85.833 47.2896 85.6158 47.6945C85.3987 48.0995 85.0958 48.437 84.7072 48.7069C84.3186 48.9769 83.8557 49.1794 83.3186 49.3144C82.7814 49.4381 82.1928 49.5 81.5528 49.5C80.9241 49.5 80.3184 49.4381 79.7355 49.3144C79.1641 49.1794 78.6212 48.9882 78.1069 48.7407C77.5925 48.482 77.1125 48.1557 76.6668 47.762L77.2668 46.8002C77.484 47.0252 77.7411 47.239 78.0383 47.4414C78.3469 47.6327 78.684 47.807 79.0498 47.9645C79.4269 48.122 79.8269 48.2457 80.2498 48.3357C80.6841 48.4145 81.1299 48.4538 81.587 48.4538C82.5585 48.4538 83.3128 48.2795 83.85 47.9308C84.3986 47.582 84.6729 47.0646 84.6729 46.3784C84.6729 45.8834 84.5358 45.4897 84.2615 45.1973C83.9872 44.8935 83.5757 44.6461 83.0271 44.4548C82.4785 44.2636 81.8042 44.078 81.0042 43.898C80.1584 43.7068 79.4441 43.493 78.8612 43.2568C78.2783 43.0206 77.8383 42.7112 77.5411 42.3288C77.2554 41.9351 77.1125 41.4176 77.1125 40.7764C77.1125 40.034 77.2954 39.4097 77.6611 38.9035C78.0383 38.386 78.5526 37.9979 79.2041 37.7392C79.8555 37.4692 80.6041 37.3342 81.4499 37.3342C81.9871 37.3342 82.4842 37.3905 82.9414 37.503C83.41 37.6042 83.8386 37.7561 84.2272 37.9585C84.6272 38.161 84.9987 38.4141 85.3415 38.7178L84.7586 39.6628Z" fill="white"/>
<path d="M88.0575 49.3988V37.4186H89.2575V49.3988H88.0575Z" fill="white"/>
<path d="M97.1959 49.4831C96.3844 49.4831 95.6301 49.3144 94.9329 48.9769C94.2357 48.6282 93.63 48.1614 93.1157 47.5764C92.6014 46.9915 92.2013 46.339 91.9156 45.6191C91.6413 44.8992 91.5042 44.1567 91.5042 43.3918C91.5042 42.5819 91.6413 41.8169 91.9156 41.097C92.2013 40.3658 92.5957 39.719 93.0985 39.1566C93.6014 38.5941 94.1957 38.1498 94.8815 37.8235C95.5672 37.4973 96.3159 37.3342 97.1273 37.3342C98.3274 37.3342 99.3046 37.5761 100.059 38.0598C100.813 38.5435 101.385 39.1734 101.773 39.9496L100.848 40.5571C100.459 39.8146 99.9389 39.269 99.2874 38.9203C98.636 38.5716 97.9102 38.3972 97.1102 38.3972C96.4359 38.3972 95.8244 38.5379 95.2758 38.8191C94.7386 39.1003 94.2757 39.4771 93.8872 39.9496C93.4986 40.4221 93.2014 40.9564 92.9957 41.5526C92.8014 42.1488 92.7042 42.7675 92.7042 43.4087C92.7042 44.0836 92.8185 44.7248 93.0471 45.3322C93.2757 45.9284 93.6014 46.4628 94.0243 46.9352C94.4472 47.3964 94.9329 47.762 95.4815 48.032C96.0416 48.2907 96.6416 48.4201 97.2816 48.4201C98.0245 48.4201 98.7274 48.2401 99.3903 47.8801C100.053 47.5089 100.688 46.9409 101.293 46.1759V47.4246C100.139 48.7969 98.7731 49.4831 97.1959 49.4831ZM101.105 44.4211H98.396V43.5099H102.116V49.3988H101.105V44.4211Z" fill="white"/>
<path d="M114.182 37.4186V49.3988H112.999V43.7968H105.782V49.3988H104.582V37.4186H105.782V42.7506H112.999V37.4186H114.182Z" fill="white"/>
<path d="M125.879 38.4647H121.542V49.3988H120.342V38.4647H116.004V37.4186H125.879V38.4647Z" fill="white"/>
<path d="M134.817 39.6628C134.646 39.4715 134.446 39.3028 134.217 39.1566C133.988 38.9991 133.731 38.8641 133.446 38.7516C133.16 38.6391 132.851 38.5491 132.52 38.4816C132.2 38.4141 131.857 38.3804 131.491 38.3804C130.428 38.3804 129.645 38.5829 129.142 38.9878C128.651 39.3815 128.405 39.9215 128.405 40.6077C128.405 41.0801 128.52 41.4513 128.748 41.7213C128.988 41.9913 129.36 42.2107 129.863 42.3794C130.365 42.5481 131.005 42.7225 131.783 42.9025C132.651 43.0825 133.4 43.2962 134.028 43.5437C134.657 43.7911 135.143 44.1286 135.486 44.5561C135.829 44.9723 136 45.5404 136 46.2603C136 46.8115 135.891 47.2896 135.674 47.6945C135.457 48.0995 135.154 48.437 134.766 48.7069C134.377 48.9769 133.914 49.1794 133.377 49.3144C132.84 49.4381 132.251 49.5 131.611 49.5C130.983 49.5 130.377 49.4381 129.794 49.3144C129.223 49.1794 128.68 48.9882 128.165 48.7407C127.651 48.482 127.171 48.1557 126.725 47.762L127.325 46.8002C127.542 47.0252 127.8 47.239 128.097 47.4414C128.405 47.6327 128.742 47.807 129.108 47.9645C129.485 48.122 129.885 48.2457 130.308 48.3357C130.743 48.4145 131.188 48.4538 131.645 48.4538C132.617 48.4538 133.371 48.2795 133.908 47.9308C134.457 47.582 134.731 47.0646 134.731 46.3784C134.731 45.8834 134.594 45.4897 134.32 45.1973C134.046 44.8935 133.634 44.6461 133.086 44.4548C132.537 44.2636 131.863 44.078 131.063 43.898C130.217 43.7068 129.503 43.493 128.92 43.2568C128.337 43.0206 127.897 42.7112 127.6 42.3288C127.314 41.9351 127.171 41.4176 127.171 40.7764C127.171 40.034 127.354 39.4097 127.72 38.9035C128.097 38.386 128.611 37.9979 129.263 37.7392C129.914 37.4692 130.663 37.3342 131.508 37.3342C132.046 37.3342 132.543 37.3905 133 37.503C133.468 37.6042 133.897 37.7561 134.286 37.9585C134.686 38.161 135.057 38.4141 135.4 38.7178L134.817 39.6628Z" fill="white"/>
<defs>
<filter id="filter0_d_225_19823" x="0" y="0" width="70" height="76" filterUnits="userSpaceOnUse" color-interpolation-filters="sRGB">
<feFlood flood-opacity="0" result="BackgroundImageFix"/>
<feColorMatrix in="SourceAlpha" type="matrix" values="0 0 0 0 0 0 0 0 0 0 0 0 0 0 0 0 0 0 127 0" result="hardAlpha"/>
<feOffset dx="5" dy="4"/>
<feGaussianBlur stdDeviation="7"/>
<feComposite in2="hardAlpha" operator="out"/>
<feColorMatrix type="matrix" values="0 0 0 0 1 0 0 0 0 1 0 0 0 0 1 0 0 0 0.6 0"/>
<feBlend mode="normal" in2="BackgroundImageFix" result="effect1_dropShadow_225_19823"/>
<feBlend mode="normal" in="SourceGraphic" in2="effect1_dropShadow_225_19823" result="shape"/>
</filter>
<linearGradient id="paint0_linear_225_19823" x1="42.0417" y1="8.87577" x2="13.9829" y2="45.8427" gradientUnits="userSpaceOnUse">
<stop stop-color="#BECBFE"/>
<stop offset="0.369406" stop-color="white"/>
</linearGradient>
<linearGradient id="paint1_linear_225_19823" x1="7.88889" y1="11.1242" x2="44.7942" y2="36.3918" gradientUnits="userSpaceOnUse">
<stop offset="0.105063" stop-color="#04ABFF"/>
<stop offset="0.548974" stop-color="white"/>
</linearGradient>
<radialGradient id="paint2_radial_225_19823" cx="0" cy="0" r="1" gradientUnits="userSpaceOnUse" gradientTransform="translate(30 21.0957) rotate(90) scale(24.8554 21.7485)">
<stop offset="0.019427" stop-color="#A88DF6"/>
<stop offset="1" stop-color="white" stop-opacity="0"/>
</radialGradient>
</defs>
</svg>
