<svg width="538" height="188" viewBox="0 0 538 188" fill="none" xmlns="http://www.w3.org/2000/svg">
<path fill-rule="evenodd" clip-rule="evenodd" d="M198.622 40.1556C200.86 39.2076 203.402 38.7461 206.23 38.7461C208.024 38.7461 209.702 38.9378 211.259 39.3284C212.839 39.6791 214.298 40.2068 215.629 40.9161C216.993 41.6228 218.256 42.5049 219.42 43.5598L220.01 44.0949L217.036 49.029L216.163 48.0316C215.671 47.4703 215.094 46.971 214.427 46.5344L214.413 46.5253L214.4 46.5157C213.73 46.0435 212.968 45.6329 212.11 45.2871C211.247 44.9396 210.309 44.6586 209.291 44.4466L209.285 44.4452C208.328 44.2387 207.292 44.1331 206.175 44.1331C202.843 44.1331 200.59 44.7886 199.223 45.9151L199.221 45.9167C197.887 47.0102 197.2 48.5021 197.2 50.5093C197.2 51.9142 197.53 52.8912 198.075 53.5554C198.698 54.2681 199.72 54.9132 201.241 55.4356C202.819 55.9772 204.844 56.543 207.326 57.1315C210.159 57.7328 212.624 58.4513 214.712 59.2926C216.858 60.1574 218.574 61.3598 219.804 62.9272C221.086 64.5227 221.671 66.6336 221.671 69.1494C221.671 71.0917 221.297 72.8287 220.511 74.3286C219.739 75.8017 218.661 77.0301 217.287 78.007C215.924 78.9762 214.32 79.6888 212.492 80.1588L212.483 80.1612L212.473 80.1635C210.659 80.5911 208.687 80.8014 206.561 80.8014C204.47 80.8014 202.45 80.5907 200.5 80.1672L200.489 80.1648L200.478 80.1622C198.57 79.7007 196.753 79.0462 195.03 78.1978L195.022 78.194L195.015 78.19C193.28 77.297 191.665 76.1726 190.168 74.8201L189.573 74.2823L192.585 69.3419L193.456 70.2654C194.1 70.9482 194.871 71.6064 195.774 72.2378C196.717 72.8348 197.753 73.3829 198.882 73.8807C200.032 74.3719 201.256 74.7601 202.555 75.0438C203.889 75.2905 205.261 75.4143 206.672 75.4143C209.702 75.4143 211.917 74.8548 213.427 73.8512L213.435 73.8461C214.905 72.8899 215.646 71.5026 215.646 69.5389C215.646 68.0865 215.257 67.0429 214.575 66.2984L214.569 66.2917L214.563 66.2849C213.823 65.446 212.659 64.7047 210.986 64.108C209.265 63.494 207.131 62.8917 204.576 62.3035L204.575 62.3032C201.816 61.6647 199.46 60.9454 197.518 60.1398C195.525 59.3134 193.95 58.202 192.864 56.7705L192.854 56.758L192.845 56.7451C191.776 55.2369 191.286 53.3157 191.286 51.0657C191.286 48.4579 191.915 46.1937 193.231 44.3308L193.233 44.3275C194.562 42.461 196.37 41.0721 198.622 40.1556ZM226.552 39.0243H254.341V44.4114H232.356V56.7185H251.524V61.9387H232.356V75.0805H254.838V80.4675H226.552V39.0243ZM260.213 39.0243H264.858L289.159 70.1206V39.0799H294.963V80.4675H289.933L266.017 49.9753V80.4675H260.213V39.0243ZM298.907 39.0243H332.662V44.4114H318.686V80.4675H312.882V44.4114H298.907V39.0243ZM336.599 39.0243H342.403V80.4675H336.599V39.0243ZM349.749 39.0243H355.498V59.9128C355.498 61.8855 355.693 63.8203 356.084 65.7182C356.505 67.5872 357.166 69.245 358.061 70.701C358.93 72.1154 360.097 73.2432 361.576 74.0912C363.015 74.8796 364.866 75.303 367.179 75.303C369.568 75.303 371.45 74.8603 372.881 74.0419C374.403 73.1558 375.568 72.0102 376.399 70.6041L376.403 70.5969L376.407 70.5898C377.302 69.1346 377.944 67.4977 378.328 65.6704C378.72 63.7688 378.916 61.8499 378.916 59.9128V39.0243H384.72V59.9128C384.72 62.6193 384.417 65.2193 383.808 67.7101C383.192 70.2291 382.187 72.4602 380.781 74.389C379.397 76.3387 377.582 77.884 375.354 79.0255C373.086 80.1882 370.366 80.7457 367.234 80.7457C364.028 80.7457 361.251 80.1693 358.943 78.9669C356.675 77.7854 354.855 76.1969 353.505 74.1984L353.501 74.1911C352.183 72.2001 351.22 69.9638 350.606 67.4909L350.604 67.484L350.603 67.4771C350.033 65.0286 349.749 62.5066 349.749 59.9128V39.0243ZM392.001 39.0243H397.512L412.251 65.0735L427.097 39.0243H432.551V80.4675H426.747V51.0028L414.082 73.2897H410.526L397.805 50.9905V80.4675H392.001V39.0243Z" fill="#2751F4"/>
<path d="M190.818 123.396C190.818 120.984 191.223 118.629 192.033 116.329C192.88 113.992 194.096 111.878 195.679 109.986C197.263 108.057 199.215 106.536 201.535 105.423C203.855 104.273 206.488 103.698 209.434 103.698C212.932 103.698 215.915 104.514 218.383 106.146C220.887 107.742 222.728 109.8 223.907 112.323L220.868 114.215C220.021 112.471 218.953 111.099 217.665 110.097C216.376 109.058 214.995 108.317 213.522 107.871C212.085 107.426 210.649 107.204 209.213 107.204C206.856 107.204 204.775 107.686 202.971 108.65C201.166 109.578 199.638 110.839 198.386 112.434C197.171 113.992 196.25 115.754 195.624 117.72C194.998 119.649 194.685 121.615 194.685 123.618C194.685 125.807 195.053 127.903 195.79 129.906C196.526 131.909 197.557 133.689 198.883 135.247C200.209 136.768 201.756 137.992 203.523 138.92C205.328 139.81 207.28 140.255 209.379 140.255C210.852 140.255 212.362 139.995 213.908 139.476C215.455 138.957 216.891 138.159 218.217 137.084C219.58 136.008 220.666 134.617 221.476 132.91L224.68 134.58C223.87 136.546 222.618 138.215 220.924 139.587C219.23 140.96 217.333 141.999 215.234 142.703C213.172 143.408 211.146 143.761 209.158 143.761C206.469 143.761 204.002 143.186 201.756 142.036C199.509 140.849 197.557 139.291 195.9 137.362C194.28 135.396 193.028 133.207 192.144 130.796C191.26 128.348 190.818 125.881 190.818 123.396Z" fill="#2751F4"/>
<path d="M246.651 143.705C243.889 143.705 241.385 143.149 239.138 142.036C236.892 140.923 234.958 139.421 233.338 137.529C231.718 135.6 230.465 133.448 229.582 131.074C228.698 128.663 228.256 126.196 228.256 123.674C228.256 121.04 228.716 118.536 229.637 116.162C230.558 113.751 231.846 111.618 233.504 109.763C235.198 107.871 237.168 106.388 239.414 105.312C241.661 104.199 244.091 103.643 246.706 103.643C249.468 103.643 251.972 104.218 254.219 105.367C256.465 106.517 258.38 108.057 259.963 109.986C261.584 111.915 262.836 114.066 263.72 116.44C264.604 118.814 265.045 121.244 265.045 123.729C265.045 126.363 264.585 128.886 263.664 131.297C262.744 133.671 261.455 135.804 259.798 137.696C258.141 139.55 256.189 141.016 253.942 142.091C251.696 143.167 249.265 143.705 246.651 143.705ZM232.123 123.674C232.123 125.825 232.473 127.903 233.172 129.906C233.872 131.872 234.866 133.634 236.155 135.192C237.444 136.713 238.972 137.937 240.74 138.864C242.545 139.754 244.515 140.2 246.651 140.2C248.897 140.2 250.904 139.736 252.672 138.808C254.476 137.844 256.005 136.583 257.257 135.025C258.546 133.43 259.522 131.649 260.184 129.683C260.847 127.717 261.179 125.714 261.179 123.674C261.179 121.522 260.829 119.464 260.129 117.497C259.429 115.531 258.417 113.769 257.091 112.211C255.802 110.653 254.274 109.429 252.506 108.539C250.738 107.649 248.787 107.204 246.651 107.204C244.441 107.204 242.434 107.667 240.63 108.595C238.862 109.522 237.334 110.783 236.045 112.378C234.793 113.936 233.817 115.698 233.117 117.664C232.454 119.63 232.123 121.634 232.123 123.674Z" fill="#2751F4"/>
<path d="M276.203 111.099V143.427H272.336V103.921H275.54L301.281 136.861V103.976H305.148V143.427H301.558L276.203 111.099Z" fill="#2751F4"/>
<path d="M337.931 111.321C337.378 110.691 336.734 110.134 335.997 109.652C335.261 109.133 334.432 108.687 333.511 108.317C332.591 107.946 331.597 107.649 330.529 107.426C329.497 107.204 328.393 107.092 327.214 107.092C323.789 107.092 321.267 107.76 319.646 109.096C318.063 110.394 317.271 112.174 317.271 114.437C317.271 115.995 317.639 117.219 318.376 118.11C319.149 119 320.346 119.723 321.966 120.28C323.587 120.836 325.649 121.411 328.153 122.005C330.952 122.598 333.364 123.303 335.39 124.119C337.415 124.935 338.98 126.048 340.085 127.457C341.19 128.83 341.742 130.703 341.742 133.077C341.742 134.895 341.392 136.471 340.693 137.807C339.993 139.142 339.017 140.255 337.765 141.145C336.513 142.036 335.021 142.703 333.291 143.149C331.56 143.557 329.663 143.761 327.601 143.761C325.575 143.761 323.624 143.557 321.745 143.149C319.904 142.703 318.155 142.073 316.498 141.257C314.84 140.404 313.294 139.328 311.858 138.029L313.791 134.858C314.491 135.6 315.319 136.305 316.277 136.972C317.271 137.603 318.357 138.178 319.536 138.697C320.751 139.217 322.04 139.625 323.403 139.921C324.802 140.181 326.238 140.311 327.711 140.311C330.842 140.311 333.272 139.736 335.003 138.586C336.771 137.436 337.654 135.73 337.654 133.467C337.654 131.835 337.213 130.536 336.329 129.572C335.445 128.57 334.119 127.754 332.351 127.124C330.584 126.493 328.411 125.881 325.833 125.287C323.108 124.657 320.806 123.952 318.928 123.173C317.05 122.394 315.632 121.374 314.675 120.113C313.754 118.814 313.294 117.108 313.294 114.994C313.294 112.545 313.883 110.487 315.061 108.817C316.277 107.111 317.934 105.831 320.033 104.978C322.132 104.088 324.544 103.643 327.269 103.643C329 103.643 330.602 103.828 332.075 104.199C333.585 104.533 334.966 105.034 336.218 105.701C337.507 106.369 338.704 107.204 339.809 108.205L337.931 111.321Z" fill="#2751F4"/>
<path d="M364.524 143.705C361.431 143.705 358.816 143.149 356.68 142.036C354.544 140.923 352.85 139.439 351.598 137.584C350.346 135.693 349.425 133.56 348.836 131.185C348.284 128.811 348.008 126.363 348.008 123.841V103.921H351.819V123.841C351.819 125.881 352.022 127.884 352.427 129.85C352.869 131.816 353.568 133.578 354.526 135.136C355.483 136.694 356.772 137.937 358.393 138.864C360.013 139.754 362.038 140.2 364.469 140.2C366.973 140.2 369.035 139.736 370.656 138.808C372.313 137.844 373.602 136.583 374.523 135.025C375.48 133.467 376.161 131.723 376.566 129.794C376.972 127.828 377.174 125.844 377.174 123.841V103.921H381.041V123.841C381.041 126.474 380.746 128.997 380.157 131.408C379.568 133.819 378.61 135.934 377.285 137.751C375.996 139.569 374.302 141.016 372.203 142.091C370.103 143.167 367.544 143.705 364.524 143.705Z" fill="#2751F4"/>
<path d="M390.259 143.427V103.921H394.126V139.977H416.774V143.427H390.259Z" fill="#2751F4"/>
<path d="M444.156 107.371H430.18V143.427H426.313V107.371H412.338V103.921H444.156V107.371Z" fill="#2751F4"/>
<path d="M450.03 143.427V103.921H453.897V143.427H450.03Z" fill="#2751F4"/>
<path d="M467.599 111.099V143.427H463.732V103.921H466.936L492.678 136.861V103.976H496.545V143.427H492.954L467.599 111.099Z" fill="#2751F4"/>
<path d="M522.146 143.705C519.531 143.705 517.101 143.149 514.854 142.036C512.608 140.886 510.656 139.346 508.999 137.417C507.342 135.488 506.053 133.337 505.132 130.963C504.248 128.589 503.807 126.141 503.807 123.618C503.807 120.947 504.248 118.425 505.132 116.051C506.053 113.64 507.323 111.507 508.944 109.652C510.564 107.797 512.479 106.332 514.689 105.256C516.898 104.18 519.31 103.643 521.925 103.643C525.792 103.643 528.941 104.44 531.371 106.035C533.802 107.63 535.643 109.708 536.895 112.267L533.912 114.27C532.66 111.822 530.984 110.023 528.885 108.873C526.786 107.723 524.448 107.148 521.87 107.148C519.697 107.148 517.727 107.612 515.959 108.539C514.228 109.466 512.737 110.709 511.485 112.267C510.233 113.825 509.275 115.587 508.612 117.553C507.986 119.519 507.673 121.559 507.673 123.674C507.673 125.899 508.042 128.014 508.778 130.017C509.515 131.983 510.564 133.745 511.927 135.303C513.289 136.824 514.855 138.029 516.622 138.92C518.427 139.773 520.36 140.2 522.422 140.2C524.816 140.2 527.081 139.606 529.217 138.419C531.353 137.195 533.397 135.322 535.348 132.799V136.917C531.629 141.442 527.228 143.705 522.146 143.705ZM534.741 127.012H526.013V124.008H538V143.427H534.741V127.012Z" fill="#2751F4"/>
<path fill-rule="evenodd" clip-rule="evenodd" d="M86.4447 38.8235C85.7005 38.4013 84.7887 38.4031 84.0462 38.8284L38.9938 64.6351C38.2406 65.0666 37.7759 65.8683 37.7759 66.7364V119.723C37.7759 120.592 38.2406 121.393 38.9938 121.825L83.9659 147.585C84.7298 148.023 85.6711 148.011 86.4241 147.555L134.352 118.522C135.496 117.829 136.985 118.195 137.678 119.339C138.371 120.483 138.005 121.972 136.861 122.665L88.9334 151.698C86.6743 153.066 83.8505 153.101 81.5586 151.788L36.5866 126.027C34.3268 124.733 32.9328 122.328 32.9328 119.723V66.7364C32.9328 64.1321 34.3268 61.7271 36.5866 60.4327L81.6389 34.626C83.8664 33.3501 86.6017 33.3444 88.8344 34.611L136.801 61.823C137.965 62.4829 138.373 63.9608 137.713 65.1241C137.053 66.2873 135.575 66.6953 134.412 66.0354L86.4447 38.8235Z" fill="black"/>
<path fill-rule="evenodd" clip-rule="evenodd" d="M81.5733 5.63315C83.8416 4.31002 86.6473 4.31395 88.9118 5.64344L161.536 48.2806C162.689 48.9578 163.075 50.4416 162.398 51.5949C161.721 52.7482 160.237 53.1343 159.084 52.4572L86.4598 9.81994C85.7049 9.37678 84.7697 9.37547 84.0136 9.81652L82.7987 7.73383L84.0136 9.81652L18.1696 48.2255C16.5579 49.1657 16.5703 51.4988 18.192 52.4218L154.226 129.843C159.083 132.608 159.13 139.592 154.311 142.422L88.9118 180.817C86.6473 182.147 83.8416 182.151 81.5733 180.827L10.872 139.585C8.64019 138.283 7.26782 135.894 7.26782 133.31V92.9881C7.26782 91.6508 8.35199 90.5666 9.68937 90.5666C11.0268 90.5666 12.1109 91.6508 12.1109 92.9881V133.31C12.1109 134.171 12.5684 134.968 13.3123 135.402L84.0136 176.644L82.7935 178.736L84.0136 176.644C84.7697 177.085 85.7049 177.084 86.4598 176.641L151.859 138.245C153.465 137.302 153.45 134.974 151.831 134.052L15.7965 56.6309C10.9314 53.862 10.8941 46.8627 15.7294 44.0421L81.5733 5.63315Z" fill="#2751F4"/>
<rect x="23.2468" y="39.7119" width="19.3724" height="19.3724" rx="9.68619" transform="rotate(90 23.2468 39.7119)" fill="#2751F4"/>
<rect x="165.634" y="125.92" width="19.3724" height="19.3724" rx="9.68619" transform="rotate(90 165.634 125.92)" fill="#2751F4"/>
<rect x="94.9246" y="139.481" width="19.3724" height="19.3724" rx="9.68619" transform="rotate(90 94.9246 139.481)" fill="black"/>
<rect x="94.9246" y="168.541" width="19.3724" height="19.3724" rx="9.68619" transform="rotate(90 94.9246 168.541)" fill="#2751F4"/>
<rect x="94.9246" y="83.3008" width="19.3724" height="19.3724" rx="9.68619" transform="rotate(90 94.9246 83.3008)" fill="#2751F4"/>
<rect x="94.9246" y="29.0586" width="19.3724" height="19.3724" rx="9.68619" transform="rotate(90 94.9246 29.0586)" fill="black"/>
<rect x="94.9246" width="19.3724" height="19.3724" rx="9.68619" transform="rotate(90 94.9246 0)" fill="#2751F4"/>
<rect x="143.355" y="54.2432" width="19.3724" height="19.3724" rx="9.68619" transform="rotate(90 143.355 54.2432)" fill="black"/>
<rect x="45.5249" y="54.2432" width="19.3724" height="19.3724" rx="9.68619" transform="rotate(90 45.5249 54.2432)" fill="black"/>
<rect x="143.355" y="111.392" width="19.3724" height="19.3724" rx="9.68619" transform="rotate(90 143.355 111.392)" fill="black"/>
<rect x="45.5249" y="111.392" width="19.3724" height="19.3724" rx="9.68619" transform="rotate(90 45.5249 111.392)" fill="black"/>
<rect x="165.633" y="39.7119" width="19.3724" height="19.3724" rx="9.68619" transform="rotate(90 165.633 39.7119)" fill="#2751F4"/>
<rect x="19.3723" y="83.3008" width="19.3724" height="19.3724" rx="9.68619" transform="rotate(90 19.3723 83.3008)" fill="#2751F4"/>
</svg>
